<?xml version="1.0" encoding="UTF-8" standalone="no"?>
<!DOCTYPE svg PUBLIC "-//W3C//DTD SVG 1.1//EN" "http://www.w3.org/Graphics/SVG/1.1/DTD/svg11.dtd">
<svg width="100%" height="100%" viewBox="0 0 100 33" version="1.1" xmlns="http://www.w3.org/2000/svg" xmlns:xlink="http://www.w3.org/1999/xlink" xml:space="preserve" xmlns:serif="http://www.serif.com/" style="fill-rule:evenodd;clip-rule:evenodd;stroke-linejoin:round;stroke-miterlimit:2;">
    <g transform="matrix(1,0,0,1,-11.6085,-10.6915)">
        <g transform="matrix(0.9996,0,0,0.956483,0,0)">
            <g transform="matrix(1.0004,0,0,1.0455,0,0)">
                <path d="M23.125,33.319C23.061,33.329 22.996,33.334 22.93,33.334L11.608,33.334L11.608,10.692L34.251,10.692L34.251,12.424L49.012,27.184L33.001,43.195L23.125,33.319ZM30.983,13.192L14.108,13.192L14.108,30.834L20.64,30.834L16.99,27.184L30.983,13.192ZM45.476,27.184L33.001,14.709L20.526,27.184L33.001,39.659L45.476,27.184Z" style="fill:url(#_Linear1);"/>
            </g>
            <g transform="matrix(1.0004,0,0,1.0455,-4.0918,-5.36574)">
                <g transform="matrix(11,0,0,11,60.0353,28.0296)">
                    <path d="M0.715,-0.464C0.697,-0.638 0.568,-0.737 0.392,-0.737C0.198,-0.737 0.047,-0.604 0.047,-0.364C0.047,-0.124 0.195,0.01 0.392,0.01C0.592,0.01 0.702,-0.126 0.715,-0.255L0.538,-0.256C0.525,-0.186 0.473,-0.144 0.396,-0.144C0.292,-0.144 0.227,-0.219 0.227,-0.364C0.227,-0.502 0.29,-0.583 0.397,-0.583C0.477,-0.583 0.529,-0.537 0.538,-0.464L0.715,-0.464Z" style="fill:url(#_Linear2);fill-rule:nonzero;"/>
                </g>
                <g transform="matrix(11,0,0,11,69.6843,28.0296)">
                    <path d="M0.212,-0L0.26,-0.153L0.511,-0.153L0.559,-0L0.748,-0L0.503,-0.727L0.269,-0.727L0.023,-0L0.212,-0ZM0.302,-0.286L0.383,-0.544L0.388,-0.544L0.469,-0.286L0.302,-0.286Z" style="fill:url(#_Linear3);fill-rule:nonzero;"/>
                </g>
                <g transform="matrix(11,0,0,11,79.6576,28.0296)">
                    <path d="M0.674,-0.727L0.499,-0.727L0.499,-0.308L0.493,-0.308L0.206,-0.727L0.055,-0.727L0.055,-0L0.231,-0L0.231,-0.42L0.235,-0.42L0.525,-0L0.674,-0L0.674,-0.727Z" style="fill:url(#_Linear4);fill-rule:nonzero;"/>
                </g>
                <g transform="matrix(11,0,0,11,89.1621,28.0296)">
                    <path d="M0.22,-0.727L0.023,-0.727L0.269,-0L0.503,-0L0.748,-0.727L0.551,-0.727L0.389,-0.195L0.383,-0.195L0.22,-0.727Z" style="fill:url(#_Linear5);fill-rule:nonzero;"/>
                </g>
                <g transform="matrix(11,0,0,11,97.9479,28.0296)">
                    <path d="M0.212,-0L0.26,-0.153L0.511,-0.153L0.559,-0L0.748,-0L0.503,-0.727L0.269,-0.727L0.023,-0L0.212,-0ZM0.302,-0.286L0.383,-0.544L0.388,-0.544L0.469,-0.286L0.302,-0.286Z" style="fill:url(#_Linear6);fill-rule:nonzero;"/>
                </g>
                <g transform="matrix(11,0,0,11,107.671,28.0296)">
                    <path d="M0.448,-0.509L0.616,-0.509C0.615,-0.645 0.507,-0.737 0.338,-0.737C0.172,-0.737 0.052,-0.647 0.053,-0.511C0.053,-0.401 0.13,-0.339 0.256,-0.31L0.332,-0.292C0.412,-0.274 0.447,-0.252 0.448,-0.211C0.447,-0.167 0.406,-0.136 0.335,-0.136C0.257,-0.136 0.206,-0.172 0.202,-0.242L0.034,-0.242C0.036,-0.072 0.154,0.009 0.337,0.009C0.518,0.009 0.626,-0.073 0.626,-0.211C0.626,-0.327 0.547,-0.398 0.404,-0.43L0.341,-0.444C0.275,-0.458 0.233,-0.48 0.235,-0.523C0.235,-0.563 0.269,-0.592 0.337,-0.592C0.406,-0.592 0.444,-0.561 0.448,-0.509Z" style="fill:url(#_Linear7);fill-rule:nonzero;"/>
                </g>
                <g transform="matrix(11,0,0,11,60.0353,39.0296)">
                    <path d="M0.055,-0.727L0.055,-0L0.226,-0L0.226,-0.449L0.232,-0.449L0.407,-0.005L0.516,-0.005L0.691,-0.447L0.697,-0.447L0.697,-0L0.868,-0L0.868,-0.727L0.651,-0.727L0.466,-0.277L0.457,-0.277L0.273,-0.727L0.055,-0.727Z" style="fill:url(#_Linear8);fill-rule:nonzero;"/>
                </g>
                <g transform="matrix(11,0,0,11,70.1915,39.0296)">
                    <path d="M0.212,-0L0.26,-0.153L0.511,-0.153L0.559,-0L0.748,-0L0.503,-0.727L0.269,-0.727L0.023,-0L0.212,-0ZM0.302,-0.286L0.383,-0.544L0.388,-0.544L0.469,-0.286L0.302,-0.286Z" style="fill:url(#_Linear9);fill-rule:nonzero;"/>
                </g>
                <g transform="matrix(11,0,0,11,78.6798,39.0296)">
                    <path d="M0.055,-0L0.562,-0L0.562,-0.143L0.231,-0.143L0.231,-0.292L0.536,-0.292L0.536,-0.435L0.231,-0.435L0.231,-0.585L0.562,-0.585L0.562,-0.727L0.055,-0.727L0.055,-0Z" style="fill:url(#_Linear10);fill-rule:nonzero;"/>
                </g>
                <g transform="matrix(11,0,0,11,85.4689,39.0296)">
                    <path d="M0.448,-0.509L0.616,-0.509C0.615,-0.645 0.507,-0.737 0.338,-0.737C0.172,-0.737 0.052,-0.647 0.053,-0.511C0.053,-0.401 0.13,-0.339 0.256,-0.31L0.332,-0.292C0.412,-0.274 0.447,-0.252 0.448,-0.211C0.447,-0.167 0.406,-0.136 0.335,-0.136C0.257,-0.136 0.206,-0.172 0.202,-0.242L0.034,-0.242C0.036,-0.072 0.154,0.009 0.337,0.009C0.518,0.009 0.626,-0.073 0.626,-0.211C0.626,-0.327 0.547,-0.398 0.404,-0.43L0.341,-0.444C0.275,-0.458 0.233,-0.48 0.235,-0.523C0.235,-0.563 0.269,-0.592 0.337,-0.592C0.406,-0.592 0.444,-0.561 0.448,-0.509Z" style="fill:url(#_Linear11);fill-rule:nonzero;"/>
                </g>
                <g transform="matrix(11,0,0,11,92.7345,39.0296)">
                    <path d="M0.031,-0.585L0.252,-0.585L0.252,-0L0.425,-0L0.425,-0.585L0.646,-0.585L0.646,-0.727L0.031,-0.727L0.031,-0.585Z" style="fill:url(#_Linear12);fill-rule:nonzero;"/>
                </g>
                <g transform="matrix(11,0,0,11,100.184,39.0296)">
                    <path d="M0.055,-0L0.231,-0L0.231,-0.249L0.321,-0.249L0.454,-0L0.646,-0L0.495,-0.277C0.575,-0.313 0.621,-0.385 0.621,-0.485C0.621,-0.635 0.519,-0.727 0.355,-0.727L0.055,-0.727L0.055,-0ZM0.231,-0.387L0.231,-0.586L0.317,-0.586C0.396,-0.586 0.439,-0.553 0.439,-0.485C0.439,-0.418 0.396,-0.387 0.317,-0.387L0.231,-0.387Z" style="fill:url(#_Linear13);fill-rule:nonzero;"/>
                </g>
                <g transform="matrix(11,0,0,11,107.465,39.0296)">
                    <path d="M0.741,-0.364C0.741,-0.604 0.589,-0.737 0.394,-0.737C0.198,-0.737 0.047,-0.604 0.047,-0.364C0.047,-0.124 0.198,0.01 0.394,0.01C0.589,0.01 0.741,-0.123 0.741,-0.364ZM0.562,-0.364C0.562,-0.221 0.499,-0.144 0.394,-0.144C0.289,-0.144 0.227,-0.221 0.227,-0.364C0.227,-0.506 0.289,-0.583 0.394,-0.583C0.499,-0.583 0.562,-0.506 0.562,-0.364Z" style="fill:url(#_Linear14);fill-rule:nonzero;"/>
                </g>
            </g>
        </g>
    </g>
    <defs>
        <linearGradient id="_Linear1" x1="0" y1="0" x2="1" y2="0" gradientUnits="userSpaceOnUse" gradientTransform="matrix(1.02488e-15,35.0387,-16.7376,2.1455e-15,29.6553,8.61981)"><stop offset="0" style="stop-color:rgb(98,97,97);stop-opacity:1"/><stop offset="1" style="stop-color:rgb(69,69,69);stop-opacity:1"/></linearGradient>
        <linearGradient id="_Linear2" x1="0" y1="0" x2="1" y2="0" gradientUnits="userSpaceOnUse" gradientTransform="matrix(1.45894e-16,2.38262,-2.38262,1.45894e-16,2.56899,-1.10962)"><stop offset="0" style="stop-color:rgb(98,97,97);stop-opacity:1"/><stop offset="1" style="stop-color:rgb(69,69,69);stop-opacity:1"/></linearGradient>
        <linearGradient id="_Linear3" x1="0" y1="0" x2="1" y2="0" gradientUnits="userSpaceOnUse" gradientTransform="matrix(1.45894e-16,2.38262,-2.38262,1.45894e-16,1.6918,-1.10962)"><stop offset="0" style="stop-color:rgb(98,97,97);stop-opacity:1"/><stop offset="1" style="stop-color:rgb(69,69,69);stop-opacity:1"/></linearGradient>
        <linearGradient id="_Linear4" x1="0" y1="0" x2="1" y2="0" gradientUnits="userSpaceOnUse" gradientTransform="matrix(1.45894e-16,2.38262,-2.38262,1.45894e-16,0.785136,-1.10962)"><stop offset="0" style="stop-color:rgb(98,97,97);stop-opacity:1"/><stop offset="1" style="stop-color:rgb(69,69,69);stop-opacity:1"/></linearGradient>
        <linearGradient id="_Linear5" x1="0" y1="0" x2="1" y2="0" gradientUnits="userSpaceOnUse" gradientTransform="matrix(1.45894e-16,2.38262,-2.38262,1.45894e-16,-0.0789118,-1.10962)"><stop offset="0" style="stop-color:rgb(98,97,97);stop-opacity:1"/><stop offset="1" style="stop-color:rgb(69,69,69);stop-opacity:1"/></linearGradient>
        <linearGradient id="_Linear6" x1="0" y1="0" x2="1" y2="0" gradientUnits="userSpaceOnUse" gradientTransform="matrix(1.45894e-16,2.38262,-2.38262,1.45894e-16,-0.877619,-1.10962)"><stop offset="0" style="stop-color:rgb(98,97,97);stop-opacity:1"/><stop offset="1" style="stop-color:rgb(69,69,69);stop-opacity:1"/></linearGradient>
        <linearGradient id="_Linear7" x1="0" y1="0" x2="1" y2="0" gradientUnits="userSpaceOnUse" gradientTransform="matrix(1.45894e-16,2.38262,-2.38262,1.45894e-16,-1.76155,-1.10962)"><stop offset="0" style="stop-color:rgb(98,97,97);stop-opacity:1"/><stop offset="1" style="stop-color:rgb(69,69,69);stop-opacity:1"/></linearGradient>
        <linearGradient id="_Linear8" x1="0" y1="0" x2="1" y2="0" gradientUnits="userSpaceOnUse" gradientTransform="matrix(1.45894e-16,2.38262,-2.38262,1.45894e-16,2.56899,-2.10962)"><stop offset="0" style="stop-color:rgb(98,97,97);stop-opacity:1"/><stop offset="1" style="stop-color:rgb(69,69,69);stop-opacity:1"/></linearGradient>
        <linearGradient id="_Linear9" x1="0" y1="0" x2="1" y2="0" gradientUnits="userSpaceOnUse" gradientTransform="matrix(1.45894e-16,2.38262,-2.38262,1.45894e-16,1.64569,-2.10962)"><stop offset="0" style="stop-color:rgb(98,97,97);stop-opacity:1"/><stop offset="1" style="stop-color:rgb(69,69,69);stop-opacity:1"/></linearGradient>
        <linearGradient id="_Linear10" x1="0" y1="0" x2="1" y2="0" gradientUnits="userSpaceOnUse" gradientTransform="matrix(1.45894e-16,2.38262,-2.38262,1.45894e-16,0.874028,-2.10962)"><stop offset="0" style="stop-color:rgb(98,97,97);stop-opacity:1"/><stop offset="1" style="stop-color:rgb(69,69,69);stop-opacity:1"/></linearGradient>
        <linearGradient id="_Linear11" x1="0" y1="0" x2="1" y2="0" gradientUnits="userSpaceOnUse" gradientTransform="matrix(1.45894e-16,2.38262,-2.38262,1.45894e-16,0.256841,-2.10962)"><stop offset="0" style="stop-color:rgb(98,97,97);stop-opacity:1"/><stop offset="1" style="stop-color:rgb(69,69,69);stop-opacity:1"/></linearGradient>
        <linearGradient id="_Linear12" x1="0" y1="0" x2="1" y2="0" gradientUnits="userSpaceOnUse" gradientTransform="matrix(1.45894e-16,2.38262,-2.38262,1.45894e-16,-0.40367,-2.10962)"><stop offset="0" style="stop-color:rgb(98,97,97);stop-opacity:1"/><stop offset="1" style="stop-color:rgb(69,69,69);stop-opacity:1"/></linearGradient>
        <linearGradient id="_Linear13" x1="0" y1="0" x2="1" y2="0" gradientUnits="userSpaceOnUse" gradientTransform="matrix(1.45894e-16,2.38262,-2.38262,1.45894e-16,-1.08087,-2.10962)"><stop offset="0" style="stop-color:rgb(98,97,97);stop-opacity:1"/><stop offset="1" style="stop-color:rgb(69,69,69);stop-opacity:1"/></linearGradient>
        <linearGradient id="_Linear14" x1="0" y1="0" x2="1" y2="0" gradientUnits="userSpaceOnUse" gradientTransform="matrix(1.45894e-16,2.38262,-2.38262,1.45894e-16,-1.7428,-2.10962)"><stop offset="0" style="stop-color:rgb(98,97,97);stop-opacity:1"/><stop offset="1" style="stop-color:rgb(69,69,69);stop-opacity:1"/></linearGradient>
    </defs>
</svg>
